<?xml version="1.0" encoding="utf-8"?>
<!-- Generator: Adobe Illustrator 14.0.0, SVG Export Plug-In  -->
<!DOCTYPE svg PUBLIC "-//W3C//DTD SVG 1.1//EN" "http://www.w3.org/Graphics/SVG/1.1/DTD/svg11.dtd" [
	<!ENTITY ns_flows "http://ns.adobe.com/Flows/1.0/">
]>
<svg version="1.1"
	 xmlns="http://www.w3.org/2000/svg" xmlns:xlink="http://www.w3.org/1999/xlink" xmlns:a="http://ns.adobe.com/AdobeSVGViewerExtensions/3.0/"
	 x="0px" y="0px" width="410px" height="332px" viewBox="-2 -2 410 332" style="enable-background:new -2 -2 410 332;"
	 xml:space="preserve">
<style type="text/css">
<![CDATA[
	.st0{fill:#231F20;}
]]>
</style>
<defs>
</defs>
<path class="st0" d="M105.4,163.2c0-46.7,13.7-87.3,37.5-117.8V0.2L4.2,24.7v51.9L28.9,74c0,0-13.7,45.6-22.8,125.5
	C-4,287,1.5,321.6,1.5,321.6h141.4v-37.7C119,254.1,105.4,212.6,105.4,163.2z"/>
<path class="st0" d="M402.4,157.8c0,100.4-57.4,164-147.2,164c-82.7,0-137.7-63.1-137.7-158.7c0-95.1,61.7-163,148.7-163
	C347.4,0,402.4,63.6,402.4,157.8z"/>
</svg>
